<svg width="40" height="40" viewBox="0 0 40 40" fill="none" xmlns="http://www.w3.org/2000/svg">
<path fill-rule="evenodd" clip-rule="evenodd" d="M36.3675 -6.18002e-10H3.63249C0.979202 -6.18002e-10 0 0.843844 0 3.13142V30.7346C0 30.9935 0.0121139 31.234 0.03865 31.4567C0.0990569 31.9561 0.11043 32.4399 0.649312 32.9908C0.701973 33.0448 1.25215 33.3976 1.25215 33.3976C1.54808 33.5227 1.75015 33.6148 2.08391 33.7305L18.2031 39.5504C19.0399 39.881 19.3898 40.0098 19.9976 39.9994V39.9995C19.9984 39.9995 19.9991 39.9995 20 39.9995C20.0008 39.9995 20.0015 39.9995 20.0023 39.9995V39.9994C20.6101 40.0098 20.96 39.881 21.7969 39.5504L37.916 33.7305C38.2498 33.6148 38.4518 33.5227 38.7479 33.3976C38.7479 33.3976 39.298 33.0448 39.3506 32.9908C39.8895 32.4399 39.9009 31.9561 39.9613 31.4567C39.9878 31.234 40 30.9935 40 30.7346V3.13142C40 0.843844 39.0207 -6.18002e-10 36.3675 -6.18002e-10Z" fill="#2F2D2E"/>
<path d="M34.1748 27.7511L34.1674 27.8148L34.1601 27.8848L34.1452 27.9485L34.1232 28.0121L34.1088 28.0695L34.0866 28.1332L34.0571 28.1905L34.0275 28.2415L33.9984 28.2987L33.9615 28.3496L33.9246 28.4006L33.8806 28.4515L33.8436 28.5025L33.7998 28.547L33.748 28.5916L33.7041 28.6298L33.6451 28.6744L33.5938 28.7126L33.5347 28.7508L33.476 28.7822L33.4173 28.8204L33.3508 28.8522L33.2847 28.8777L33.2187 28.9095L33.1448 28.935L33.0714 28.9605L32.9979 28.9796L32.9245 28.9987L32.858 29.0178L32.7846 29.0305L32.7185 29.0433L32.6525 29.056L32.5785 29.0688L32.505 29.0751L32.439 29.0815L32.3651 29.0879L32.2843 29.0942L32.2108 29.1006H32.1374H32.0566H31.9753H31.9019L31.8284 29.0942H31.7476L31.6741 29.0879L31.6002 29.0815L31.5194 29.0751L31.446 29.0624L31.3725 29.056L31.2986 29.0433L31.2251 29.0305L31.1517 29.0178L31.0783 29.005L31.0044 28.986L30.9383 28.9732L30.8649 28.9541L30.7914 28.935L30.725 28.9095L30.6515 28.8904L30.5854 28.8714L30.5119 28.8459L30.4455 28.8204L30.3794 28.7949L30.3133 28.7635L30.2469 28.738L30.1808 28.7061L30.1221 28.6744L30.0556 28.6425L29.997 28.6107L29.9379 28.5789L29.8792 28.5407L29.8205 28.5025L29.7614 28.4642L29.7027 28.426L29.651 28.3878L29.5923 28.3433L29.6367 28.2924L29.6879 28.2478L29.7322 28.1968L29.7836 28.1459L29.8279 28.1013L29.8718 28.0504L29.9235 27.9994L29.9674 27.9549L30.0191 27.904L30.063 27.8594L30.1147 27.8085L30.1586 27.7575L30.203 27.7129L30.2542 27.662L30.2986 27.611L30.3498 27.5665L30.3942 27.5156L30.4528 27.5538L30.5189 27.592L30.578 27.6302L30.6441 27.6684L30.7032 27.7002L30.7693 27.7384L30.8279 27.7702L30.8945 27.7957L30.9531 27.8276L31.0192 27.8531L31.0857 27.8785L31.1517 27.904L31.2179 27.9231L31.2843 27.9485L31.3577 27.9676L31.4312 27.9867L31.4972 28.0058L31.5712 28.0186L31.6446 28.0313L31.718 28.044L31.7989 28.0504L31.8727 28.0631H31.9462L32.027 28.0695H32.1005H32.1887L32.2695 28.0631L32.3434 28.0504L32.4094 28.0376L32.4755 28.0249L32.5346 28.0058L32.586 27.9804L32.645 27.9422L32.6889 27.8976L32.7185 27.8466L32.7407 27.7894L32.748 27.7256V27.7129L32.7407 27.6365L32.7111 27.5728L32.6741 27.5283L32.6229 27.4901L32.5637 27.4519L32.505 27.4264L32.439 27.401L32.3651 27.3755L32.2769 27.3437L32.2256 27.3309L32.167 27.3182L32.1005 27.299L32.0344 27.2863L31.961 27.2672L31.887 27.2545L31.8063 27.2354L31.7328 27.2227L31.6519 27.2036L31.5785 27.1909L31.5046 27.1718L31.4312 27.159L31.3577 27.1399L31.2912 27.1209L31.2179 27.1081L31.1517 27.089L31.0857 27.0699L31.0192 27.0508L30.9383 27.0253L30.8649 26.9998L30.7914 26.9743L30.7175 26.9488L30.6515 26.917L30.578 26.8852L30.5189 26.8534L30.4528 26.8216L30.3942 26.7834L30.3351 26.7516L30.2838 26.7133L30.2321 26.6688L30.1808 26.6242L30.1365 26.5796L30.0926 26.535L30.0556 26.4905L30.0191 26.4395L29.9822 26.3823L29.9526 26.3381L29.9304 26.2871L29.9088 26.2298L29.8866 26.1789L29.8718 26.1152L29.857 26.0578L29.8496 25.9942L29.8423 25.9305L29.8348 25.8606V25.7905V25.7778V25.714L29.8423 25.6504L29.8496 25.5931L29.857 25.5294L29.8718 25.4722L29.8866 25.4148L29.9088 25.3575L29.9235 25.3002L29.9526 25.2429L29.9822 25.1856L30.0117 25.1284L30.0483 25.071L30.0851 25.0137L30.1291 24.9627L30.1735 24.9118L30.2247 24.8609L30.2764 24.8164L30.3277 24.7654L30.3868 24.7208L30.4381 24.689L30.4972 24.6508L30.5559 24.6126L30.6145 24.5807L30.681 24.5489L30.7471 24.5234L30.8131 24.4916L30.8797 24.4662L30.9531 24.447L31.0265 24.4216L31.093 24.4025L31.1517 24.3897L31.2179 24.377L31.2843 24.3643L31.3577 24.3516L31.4238 24.3388L31.4972 24.3325L31.5712 24.3261L31.6446 24.3197L31.718 24.3133H31.7914H31.8727H31.9536H32.0344L32.1152 24.3197L32.1961 24.3261H32.2695L32.3508 24.3325L32.4242 24.3452L32.505 24.3516L32.5785 24.3643L32.645 24.377L32.7185 24.3897L32.7919 24.4025L32.858 24.4152L32.9318 24.4343L32.9979 24.4534L33.064 24.4662L33.1379 24.4916L33.204 24.5107L33.27 24.5361L33.3361 24.5616L33.4099 24.5871L33.476 24.6189L33.5347 24.6444L33.6012 24.6763L33.6673 24.7081L33.7259 24.74L33.7924 24.7782L33.8511 24.8099L33.9102 24.8482L33.9689 24.8864L34.0275 24.9245L33.9836 24.9755L33.9467 25.0264L33.9028 25.0774L33.8585 25.1284L33.8146 25.1856L33.7776 25.2365L33.7333 25.2875L33.6894 25.3384L33.6525 25.3894L33.6085 25.4403L33.5643 25.4913L33.5273 25.5422L33.4834 25.5995L33.439 25.6504L33.3951 25.7013L33.3582 25.7523L33.3143 25.8032L33.2552 25.765L33.1892 25.7332L33.1304 25.7013L33.0714 25.6631L33.0053 25.6377L32.9462 25.6058L32.8802 25.5803L32.8215 25.5549L32.755 25.5294L32.6963 25.504L32.6303 25.4849L32.5712 25.4594L32.4903 25.4403L32.4169 25.4212L32.3434 25.4021L32.2695 25.3894L32.1961 25.3766L32.1226 25.3639L32.0492 25.3575L31.9753 25.3511L31.9093 25.3448H31.8358H31.7476L31.6668 25.3575L31.5928 25.3702L31.5268 25.383L31.4681 25.4085L31.4164 25.4339L31.3503 25.4849L31.306 25.5422L31.277 25.5995L31.2695 25.6631V25.6759L31.277 25.7586L31.3134 25.8287L31.343 25.8669L31.3942 25.9115L31.4607 25.9433L31.5194 25.9751L31.5928 26.0006L31.6741 26.0261L31.7623 26.0515L31.821 26.0642L31.8797 26.0833L31.9462 26.0961L32.0122 26.1152L32.0856 26.1279L32.167 26.147L32.2478 26.1661L32.3287 26.1853L32.4094 26.198L32.4829 26.2171L32.5637 26.2362L32.6376 26.2489L32.7111 26.268L32.7846 26.2871L32.8506 26.3062L32.9245 26.3253L32.9906 26.3444L33.0566 26.3635L33.1379 26.3886L33.2113 26.4205L33.2847 26.4459L33.3582 26.4777L33.4247 26.5096L33.4908 26.5414L33.5494 26.5732L33.6085 26.6114L33.6673 26.6433L33.7259 26.6879L33.785 26.7324L33.8363 26.7834L33.888 26.8279L33.9319 26.8789L33.9762 26.9361L34.0127 26.9871L34.0497 27.0444L34.0792 27.0954L34.1014 27.1526L34.1232 27.2099L34.1379 27.2672L34.1527 27.3309L34.1674 27.3946L34.1748 27.4583L34.1823 27.5283V27.5983V27.611V27.6811L34.1748 27.7511ZM29.0164 29.0242H28.9426H28.8692H28.7957H28.7223H28.6484H28.5749H28.5015H28.428H28.3468H28.2733H28.1999H28.1265H28.0525H27.9791H27.9056H27.8322H27.7583H27.6848H27.6114H27.538H27.4645H27.3906H27.3172H27.2438H27.1703H27.0963H27.0229H26.9495H26.8686H26.7948H26.7213H26.6479H26.5744H26.5006H26.4271H26.3537H26.2802H26.2063H26.1329H26.0595H25.9859H25.912H25.8387H25.7652H25.6917H25.6179H25.5444H25.4635H25.3901H25.3167H25.2428H25.1693H25.0958H25.0225H24.9486H24.8751H24.8017V28.9605V28.8968V28.8332V28.7698V28.7061V28.6425V28.5789V28.5152V28.4515V28.3878V28.3242V28.2605V28.1968V28.1332V28.0695V28.0058V27.9422V27.8785V27.8212V27.7575V27.6938V27.6302V27.5665V27.5028V27.4392V27.3755V27.3118V27.2481V27.1845V27.1209V27.0572V26.9934V26.9298V26.8661V26.8024V26.7388V26.6751V26.6114V26.5478V26.4841V26.4205V26.3571V26.2935V26.2298V26.1661V26.1024V26.0388V25.9751V25.9115V25.8478V25.7841V25.7204V25.6567V25.5931V25.5358V25.4722V25.4085V25.3448V25.2811V25.2174V25.1538V25.0901V25.0264V24.9627V24.8991V24.8354V24.7717V24.7081V24.6444V24.5807V24.5171V24.4534V24.3897H24.8751H24.9486H25.0225H25.0958H25.1693H25.2428H25.3167H25.3901H25.4635H25.5371H25.6109H25.6844H25.7578H25.8313H25.8977H25.9712H26.0446H26.1181H26.192H26.2654H26.3388H26.4123H26.4862H26.5596H26.633H26.7065H26.7805H26.8539H26.9273H27.0008H27.0747H27.1482H27.2215H27.295H27.3685H27.4424H27.5158H27.5892H27.6627H27.7366H27.81H27.8835H27.9569H28.0235H28.0969H28.1703H28.2438H28.3177H28.3911H28.4645H28.538H28.6119H28.6853H28.7587H28.8322H28.9061H28.9796H29.053V24.4534V24.5107V24.5743V24.638V24.7017V24.759V24.8227V24.8864V24.9436V25.0073V25.071V25.1284V25.192V25.2556V25.3193V25.3766V25.4403H28.9796H28.9061H28.8322H28.7587H28.6853H28.6119H28.5454H28.4719H28.3985H28.325H28.2512H28.1777H28.1042H28.0308H27.9569H27.8835H27.81H27.7366H27.6627H27.5967H27.5232H27.4497H27.3758H27.3025H27.2289H27.1555H27.0816H27.0082H26.9347H26.8613H26.7874H26.7139H26.6479H26.5744H26.5006H26.4271H26.3537H26.2802H26.2063V25.504V25.5676V25.6312V25.6949V25.7586V25.816V25.8796V25.9433V26.0069V26.0706V26.1343V26.198H26.2802H26.3537H26.4271H26.5006H26.5744H26.6479H26.7213H26.7948H26.8613H26.9347H27.0082H27.0816H27.1555H27.2289H27.3025H27.3758H27.4497H27.5232H27.5967H27.6701H27.7439H27.8174H27.8909H27.9644H28.0382H28.1116H28.1777H28.2512H28.325H28.3985H28.4719H28.5454H28.6192H28.6927H28.7662V26.2616V26.3189V26.3823V26.4459V26.5032V26.5668V26.6305V26.6879V26.7516V26.8152V26.8789V26.9361V26.9998V27.0635V27.1209V27.1845H28.6927H28.6192H28.5454H28.4719H28.3985H28.325H28.2512H28.1777H28.1116H28.0382H27.9644H27.8909H27.8174H27.7439H27.6701H27.5967H27.5232H27.4497H27.3758H27.3025H27.2289H27.1555H27.0816H27.0082H26.9347H26.8613H26.7948H26.7213H26.6479H26.5744H26.5006H26.4271H26.3537H26.2802H26.2063V27.2481V27.3182V27.3818V27.4456V27.5156V27.5793V27.6429V27.7129V27.7766V27.8403V27.9103V27.9739H26.2802H26.3537H26.4271H26.5006H26.5744H26.6479H26.7213H26.7948H26.8686H26.9495H27.0229H27.0963H27.1703H27.2438H27.3172H27.3906H27.4645H27.538H27.6114H27.6848H27.7583H27.8322H27.9056H27.9791H28.0525H28.1265H28.1999H28.2733H28.3468H28.428H28.5015H28.5749H28.6484H28.7223H28.7957H28.8692H28.9426H29.0164H29.0899V28.0376V28.0949V28.1586V28.2223V28.286V28.3433V28.4069V28.4706V28.5279V28.5916V28.6552V28.7126V28.7759V28.8395V28.9031V28.9605V29.0242H29.0164ZM23.6421 29.0242H23.5687H23.4952H23.414H23.3406H23.2671H23.1936H23.1197H23.0463H22.9654H22.892H22.8185H22.7447H22.6712H22.5978H22.517H22.443H22.3696H22.2961V28.9605V28.8968V28.8332V28.7695V28.7054V28.6418V28.5781V28.5144V28.4507V28.3871V28.3234V28.2594V28.1957V28.132V28.0684V28.0047V27.9406V27.8769V27.8133V27.7497V27.686V27.6223V27.5583V27.4946V27.4309V27.3672V27.3036V27.2399V27.1758V27.1121V27.0485V26.9849V26.9212V26.8575V26.7935V26.7298V26.6661V26.6025V26.5388V26.4747V26.4111V26.3474V26.2837L22.2593 26.3346L22.2153 26.3923L22.1783 26.4433L22.1345 26.4943L22.0976 26.5515L22.0532 26.6025L22.0167 26.6534L21.9797 26.7111L21.9359 26.762L21.8989 26.8129L21.8546 26.8639L21.8181 26.9216L21.7738 26.9725L21.7373 27.0234L21.7003 27.0807L21.6559 27.132L21.6194 27.183L21.5751 27.2402L21.5387 27.2912L21.4943 27.3421L21.4578 27.3998L21.4208 27.4508L21.3766 27.5017L21.3401 27.559L21.2957 27.6103L21.2592 27.6612L21.2149 27.7122L21.1779 27.7695L21.1414 27.8207L21.0971 27.8717L21.0606 27.929L21.0163 27.98L20.9793 28.0309L20.9354 28.0886L20.8985 28.1395H20.8693L20.8251 28.0822L20.7881 28.0309L20.7441 27.9736L20.7072 27.9227L20.6633 27.8654L20.6264 27.8141L20.5825 27.7568L20.5455 27.7058L20.5012 27.6485L20.4647 27.5976L20.4204 27.5399L20.3839 27.4889L20.3396 27.4316L20.3026 27.3807L20.2587 27.323L20.2217 27.2721L20.1779 27.2148L20.1336 27.1639L20.0966 27.1062L20.0527 27.0553L20.0158 26.998L19.9719 26.9471L19.935 26.8893L19.891 26.8384L19.8541 26.7811L19.8098 26.7302L19.7733 26.6729L19.7289 26.6215L19.6924 26.5643L19.6481 26.5133L19.6112 26.456L19.5673 26.4051L19.5302 26.3474L19.4864 26.2965V26.3601V26.4238V26.4875V26.5515V26.6152V26.6788V26.7425V26.8062V26.8702V26.9339V26.9912V27.0549V27.1186V27.1822V27.2463V27.31V27.3736V27.4372V27.5009V27.5647V27.6286V27.6923V27.756V27.8197V27.8834V27.947V28.0111V28.0747V28.1384V28.202V28.2657V28.3297V28.3871V28.4507V28.5144V28.5781V28.6418V28.7054V28.7695V28.8332V28.8968V28.9605V29.0242H19.413H19.3391H19.2656H19.1922H19.1188H19.0449H18.9714H18.898H18.8245H18.7506H18.6772H18.6037H18.5303H18.4564H18.383H18.3095H18.236H18.1621H18.0887V28.9605V28.8968V28.8332V28.7698V28.7061V28.6425V28.5789V28.5152V28.4515V28.3878V28.3242V28.2605V28.1968V28.1332V28.0695V28.0058V27.9422V27.8785V27.8212V27.7575V27.6938V27.6302V27.5665V27.5028V27.4392V27.3755V27.3118V27.2481V27.1845V27.1209V27.0572V26.9934V26.9298V26.8661V26.8024V26.7388V26.6751V26.6114V26.5478V26.4841V26.4205V26.3571V26.2935V26.2298V26.1661V26.1024V26.0388V25.9751V25.9115V25.8478V25.7841V25.7204V25.6567V25.5931V25.5358V25.4722V25.4085V25.3448V25.2811V25.2174V25.1538V25.0901V25.0264V24.9627V24.8991V24.8354V24.7717V24.7081V24.6444V24.5807V24.5171V24.4534V24.3897H18.1621H18.236H18.3022H18.3755H18.449H18.5229H18.5889H18.6624H18.7363H18.8097H18.8758H18.9492H19.0232H19.0966H19.1626H19.236H19.31H19.3835H19.4495H19.5229H19.5968L19.6333 24.4407L19.6703 24.4979L19.7141 24.5485L19.7511 24.6058L19.788 24.6567L19.8245 24.7141L19.8614 24.7646L19.9055 24.822L19.9423 24.8729L19.9793 24.9238L20.0158 24.9807L20.0527 25.0317L20.0966 25.0889L20.1336 25.1399L20.1705 25.1968L20.207 25.2477L20.2513 25.2987L20.2883 25.3557L20.3248 25.4065L20.3617 25.4639L20.3983 25.5148L20.4426 25.5717L20.4795 25.6227L20.516 25.68L20.553 25.7305L20.5895 25.7814L20.6338 25.8388L20.6707 25.8897L20.7072 25.9471L20.7441 25.9976L20.7807 26.0549L20.8251 26.1059L20.862 26.1627L20.8985 26.2137L20.9354 26.1627L20.9723 26.1059L21.0163 26.0549L21.0531 25.9976L21.0897 25.9471L21.1266 25.8897L21.1705 25.8388L21.2075 25.7814L21.2445 25.7305L21.2809 25.68L21.3252 25.6227L21.3617 25.5717L21.3987 25.5148L21.4356 25.4639L21.4795 25.4065L21.5164 25.3557L21.5534 25.2987L21.5898 25.2477L21.6269 25.1968L21.6708 25.1399L21.7077 25.0889L21.7446 25.0317L21.7812 24.9807L21.8255 24.9238L21.862 24.8729L21.8989 24.822L21.9359 24.7646L21.9797 24.7141L22.0167 24.6567L22.0532 24.6058L22.0902 24.5485L22.1345 24.4979L22.171 24.4407L22.2079 24.3897H22.2813H22.3549H22.4213H22.4948H22.5682H22.6416H22.7082H22.7817H22.855H22.9285H22.995H23.0685H23.1419H23.2154H23.2818H23.3553H23.4288H23.5022H23.5687H23.6421H23.7155V24.4534V24.5171V24.5807V24.6444V24.7081V24.7717V24.8354V24.8991V24.9627V25.0264V25.0901V25.1538V25.2174V25.2811V25.3448V25.4085V25.4722V25.5358V25.5931V25.6567V25.7204V25.7841V25.8478V25.9115V25.9751V26.0388V26.1024V26.1661V26.2298V26.2935V26.3571V26.4205V26.4841V26.5478V26.6114V26.6751V26.7388V26.8024V26.8661V26.9298V26.9934V27.0572V27.1209V27.1845V27.2481V27.3118V27.3755V27.4392V27.5028V27.5665V27.6302V27.6938V27.7575V27.8212V27.8785V27.9422V28.0058V28.0695V28.1332V28.1968V28.2605V28.3242V28.3878V28.4515V28.5152V28.5789V28.6425V28.7061V28.7698V28.8332V28.8968V28.9605V29.0242H23.6421ZM15.1078 27.1145L15.0856 27.0568L15.0565 26.9931L15.0269 26.9358L15.0047 26.8781L14.9757 26.8208L14.9462 26.7571L14.9239 26.6994L14.8943 26.6421L14.8653 26.5849L14.8431 26.5272L14.8135 26.4635L14.7918 26.4062L14.7622 26.3485L14.7326 26.2912L14.7105 26.2339L14.6814 26.1699L14.6519 26.1125L14.6297 26.0553L14.6001 25.9976L14.571 25.9339L14.5489 25.8763L14.5193 25.8189L14.4902 25.8763L14.4681 25.9339L14.4385 25.9976L14.4089 26.0553L14.3872 26.1125L14.3577 26.1699L14.3281 26.2339L14.299 26.2912L14.2767 26.3485L14.2472 26.4062L14.2176 26.4635L14.1959 26.5272L14.1664 26.5849L14.1368 26.6421L14.1147 26.6994L14.0855 26.7571L14.056 26.8208L14.0265 26.8781L14.0048 26.9358L13.9752 26.9931L13.9456 27.0568L13.9234 27.1145L13.8943 27.1718H13.9678H14.0412H14.1147H14.1886H14.262H14.3354H14.4089H14.4828H14.5489H14.6223H14.6962H14.7696H14.8431H14.9166H14.99H15.0638H15.1373L15.1078 27.1145ZM17.4177 29.0242H17.3439H17.2777H17.2044H17.1304H17.057H16.9835H16.9175H16.8436H16.7701H16.6967H16.6232H16.5494H16.4833H16.4098H16.3363H16.2625H16.1891H16.123H16.0495H15.9757L15.9465 28.9668L15.9244 28.9095L15.8949 28.8522L15.8653 28.7886L15.8435 28.7316L15.814 28.6744L15.7844 28.6171L15.7627 28.5598L15.7332 28.5025L15.7036 28.4451L15.6815 28.3878L15.6523 28.3242L15.6227 28.2669L15.6006 28.2096L15.571 28.1523H15.4976H15.4241H15.3507H15.2773H15.2108H15.1373H15.0638H14.99H14.9166H14.8431H14.7696H14.6962H14.6223H14.5489H14.4828H14.4089H14.3354H14.262H14.1886H14.1147H14.0412H13.9678H13.8943H13.8209H13.7543H13.681H13.6075H13.5336H13.4601L13.431 28.2096L13.4089 28.2669L13.3793 28.3242L13.3498 28.3878L13.328 28.4451L13.2985 28.5025L13.2689 28.5598L13.2468 28.6171L13.2177 28.6744L13.1881 28.7316L13.1659 28.7886L13.1368 28.8522L13.1072 28.9095L13.0851 28.9668L13.0555 29.0242H12.9821H12.9086H12.8352H12.7613H12.6879H12.607H12.5336H12.4601H12.3862H12.3128H12.2394H12.1659H12.0919H12.0186H11.9452H11.8643H11.7904H11.717H11.6435H11.57L11.5991 28.9668L11.6287 28.9095L11.6582 28.8522L11.6874 28.7886L11.7096 28.7316L11.7391 28.6744L11.7687 28.6171L11.7977 28.5598L11.8273 28.5025L11.8569 28.4387L11.886 28.3814L11.9156 28.3242L11.9377 28.2669L11.9673 28.2096L11.9964 28.1523L12.0259 28.0886L12.0554 28.0313L12.0846 27.9739L12.1142 27.9167L12.1437 27.8594L12.1659 27.8021L12.195 27.7384L12.2245 27.6811L12.2541 27.6238L12.2832 27.5665L12.3128 27.5092L12.3424 27.4519L12.3715 27.3882L12.3937 27.3309L12.4232 27.2736L12.4527 27.2163L12.4819 27.159L12.5114 27.1017L12.5409 27.038L12.5701 26.9807L12.5996 26.9234L12.6218 26.8661L12.6514 26.8089L12.6804 26.7516L12.71 26.6879L12.7396 26.6305L12.7687 26.5732L12.7982 26.5159L12.8278 26.4587L12.85 26.4013L12.8791 26.3444L12.9086 26.2807L12.9381 26.2235L12.9673 26.1661L12.9968 26.1088L13.0264 26.0515L13.0555 25.9942L13.0777 25.9305L13.1072 25.8733L13.1368 25.816L13.1659 25.7586L13.1955 25.7013L13.225 25.644L13.2542 25.5803L13.2837 25.5231L13.3059 25.4658L13.3354 25.4085L13.3645 25.3511L13.394 25.2938L13.4236 25.2302L13.4527 25.1729L13.4823 25.1156L13.5119 25.0583L13.5336 25.001L13.5631 24.9436L13.5927 24.88L13.6223 24.8227L13.6514 24.7654L13.681 24.7081L13.7105 24.6508L13.7396 24.5935L13.7618 24.5298L13.7913 24.4725L13.8209 24.4152L13.85 24.3579H13.9234H13.9899H14.0634H14.1368H14.2107H14.2767H14.3502H14.4237H14.4976H14.5637H14.637H14.7105H14.7844H14.8505H14.9239H14.9973H15.0713H15.1373H15.2108L15.2403 24.4152L15.2699 24.4725L15.299 24.5298L15.3285 24.5935L15.3507 24.6508L15.3798 24.7081L15.4094 24.7654L15.4389 24.8227L15.4685 24.88L15.4976 24.9436L15.5271 25.001L15.5567 25.0583L15.5784 25.1156L15.608 25.1729L15.6376 25.2302L15.6672 25.2938L15.6963 25.3511L15.7258 25.4085L15.7553 25.4658L15.7844 25.5231L15.8066 25.5803L15.8361 25.644L15.8653 25.7013L15.8949 25.7586L15.9244 25.816L15.954 25.8733L15.983 25.9305L16.0125 25.9942L16.0348 26.0515L16.0639 26.1088L16.0934 26.1661L16.123 26.2235L16.1526 26.2807L16.1817 26.3444L16.2112 26.4013L16.2407 26.4587L16.2625 26.5159L16.292 26.5732L16.3216 26.6305L16.3508 26.6879L16.3803 26.7516L16.4098 26.8089L16.4394 26.8661L16.4685 26.9234L16.4907 26.9807L16.5202 27.038L16.5494 27.1017L16.5789 27.159L16.6085 27.2163L16.638 27.2736L16.6671 27.3309L16.6967 27.3882L16.7188 27.4519L16.748 27.5092L16.7775 27.5665L16.8071 27.6238L16.8362 27.6811L16.8657 27.7384L16.8953 27.8021L16.9249 27.8594L16.9466 27.9167L16.9762 27.9739L17.0058 28.0313L17.0348 28.0886L17.0644 28.1523L17.0939 28.2096L17.1234 28.2669L17.1525 28.3242L17.1748 28.3814L17.2044 28.4387L17.2335 28.5025L17.263 28.5598L17.2925 28.6171L17.3216 28.6744L17.3511 28.7316L17.3807 28.7886L17.403 28.8522L17.432 28.9095L17.4616 28.9668L17.4911 29.0242H17.4177ZM10.9738 28.4324L10.9147 28.4706L10.8634 28.5025L10.8043 28.5407L10.7456 28.5725L10.6869 28.6107L10.6278 28.6425L10.5692 28.6744L10.5027 28.7061L10.4366 28.738L10.3705 28.7698L10.3041 28.7949L10.238 28.8268L10.1645 28.8522L10.0985 28.8777L10.0246 28.9031L9.95859 28.9286L9.89241 28.9477L9.82599 28.9668L9.7599 28.986L9.68647 29.005L9.62046 29.0242L9.54654 29.0369L9.48044 29.0496L9.40702 29.0624L9.33318 29.0751L9.25967 29.0815L9.17882 29.0879L9.10539 29.0942L9.02455 29.1006L8.95063 29.107L8.86986 29.1133H8.78902H8.70809H8.62733H8.55341L8.47998 29.107L8.39913 29.1006L8.32571 29.0942L8.25228 29.0879L8.17836 29.0815L8.10493 29.0688L8.03142 29.056L7.96541 29.0433L7.89157 29.0305L7.82548 29.0114L7.75205 28.9987L7.68554 28.9796L7.61945 28.9541L7.55336 28.935L7.48001 28.9095L7.41351 28.8841L7.34741 28.8587L7.2814 28.8332L7.21481 28.8014L7.15622 28.7698L7.09013 28.738L7.03104 28.7061L6.97236 28.6744L6.91327 28.6361L6.8546 28.598L6.79584 28.5598L6.74417 28.5216L6.69291 28.4833L6.64115 28.4387L6.58989 28.4006L6.53814 28.356L6.48688 28.3114L6.44254 28.2669L6.39862 28.216L6.35428 28.1714L6.31736 28.1204L6.27344 28.0695L6.2366 28.0186L6.20001 27.9676L6.16309 27.9103L6.12617 27.8594L6.09708 27.8021L6.06749 27.7448L6.03799 27.6874L6.00882 27.6302L5.98665 27.5793L5.95706 27.5219L5.94231 27.4646L5.92056 27.4073L5.9058 27.3437L5.88364 27.2863L5.86888 27.2227L5.86147 27.1654L5.84663 27.1017L5.83938 27.0444L5.83188 26.9807L5.82496 26.917L5.81763 26.8534V26.7834V26.7197V26.707V26.6433L5.82496 26.5732V26.5096L5.83188 26.4459L5.83938 26.3759L5.85413 26.3126L5.86147 26.2489L5.87622 26.1916L5.89839 26.1279L5.91322 26.0642L5.93489 26.0069L5.95706 25.9433L5.97923 25.886L6.00882 25.8223L6.03799 25.765L6.06749 25.7077L6.09708 25.6504L6.12617 25.5931L6.16309 25.5358L6.20001 25.4849L6.2366 25.4339L6.27344 25.383L6.31044 25.332L6.35428 25.2811L6.39862 25.2302L6.44254 25.1793L6.48688 25.1346L6.53814 25.0901L6.58248 25.0455L6.63382 25.001L6.68549 24.9564L6.73675 24.9182L6.79584 24.8736L6.84718 24.8354L6.90586 24.7972L6.96495 24.7654L7.02362 24.7272L7.08279 24.6954L7.14139 24.6635L7.20748 24.6317L7.27399 24.5998L7.34 24.568L7.40609 24.5425L7.47251 24.5171L7.54602 24.4852L7.6047 24.4662L7.67813 24.447L7.74471 24.4216L7.81072 24.4088L7.87674 24.3897L7.95057 24.377L8.01667 24.3579L8.0901 24.3452L8.16361 24.3388L8.23744 24.3261L8.31095 24.3197L8.3843 24.3133L8.45781 24.307L8.53173 24.3006H8.61258H8.68601H8.76677H8.84761L8.92895 24.307L9.0098 24.3133H9.08322L9.15665 24.3197L9.2375 24.3325L9.304 24.3388L9.37743 24.3516L9.45094 24.3643L9.51736 24.377L9.58337 24.3897L9.64955 24.4025L9.71606 24.4216L9.78207 24.4343L9.84074 24.4534L9.90725 24.4725L9.97334 24.4979L10.0394 24.5234L10.1059 24.5489L10.1719 24.5807L10.238 24.6062L10.2971 24.638L10.3631 24.6699L10.4218 24.7017L10.4883 24.7336L10.547 24.7717L10.6057 24.8036L10.6648 24.8418L10.7234 24.88L10.7825 24.9245L10.8412 24.9627L10.7969 25.0137L10.7456 25.0583L10.7013 25.1092L10.65 25.1601L10.6057 25.2111L10.5618 25.2556L10.51 25.3065L10.4662 25.3575L10.4218 25.4021L10.3705 25.4531L10.3262 25.504L10.2749 25.5549L10.2305 25.5995L10.1867 25.6504L10.135 25.7013L10.091 25.7523L10.0394 25.7969L9.99543 25.8478L9.93634 25.8096L9.87766 25.765L9.81857 25.7332L9.7599 25.6949L9.70122 25.6631L9.64213 25.6312L9.58337 25.5995L9.51736 25.5676L9.45827 25.5422L9.3996 25.5167L9.34051 25.4976L9.27442 25.4785L9.20841 25.4594L9.1419 25.4467L9.06847 25.4339L8.99505 25.4212L8.92153 25.4148L8.84069 25.4085L8.75943 25.4021H8.67859H8.60516L8.53173 25.4085L8.46523 25.4148L8.3918 25.4276L8.32571 25.4403L8.2592 25.4594L8.19319 25.4785L8.1271 25.504L8.061 25.5294L8.00192 25.5612L7.94332 25.5931L7.88415 25.625L7.83289 25.6631L7.78114 25.7013L7.72988 25.7395L7.68554 25.7841L7.63428 25.8287L7.58995 25.8796L7.55336 25.9242L7.51644 25.9751L7.48001 26.0324L7.44301 26.0833L7.41351 26.1407L7.39134 26.198L7.36216 26.2553L7.34 26.3189L7.32524 26.3823L7.31049 26.4395L7.29566 26.5096L7.28832 26.5732L7.2814 26.6369V26.707V26.7197V26.7834L7.28832 26.847L7.29566 26.9043L7.30308 26.968L7.31783 27.0253L7.33266 27.0826L7.34741 27.1399L7.36958 27.1972L7.39134 27.2481L7.42092 27.3118L7.45043 27.3691L7.48693 27.4264L7.52385 27.4774L7.56077 27.5283L7.6047 27.5793L7.64903 27.6238L7.70029 27.6684L7.74471 27.7129L7.79589 27.7511L7.85506 27.7894L7.91374 27.8276L7.97233 27.8594L8.03142 27.8912L8.09759 27.9167L8.16361 27.9422L8.23003 27.9676L8.30354 27.9867L8.37697 28.0058L8.45089 28.0186L8.52432 28.0313L8.59774 28.0376L8.67859 28.044H8.75943H8.84761L8.92895 28.0376L9.0098 28.0313L9.08322 28.0249L9.15665 28.0121L9.23057 27.9994L9.304 27.9804L9.37001 27.9676L9.43619 27.9422L9.49528 27.9167L9.56129 27.8912L9.61296 27.8658L9.67172 27.8339V27.7702V27.7066V27.6429V27.5793V27.5092V27.4456V27.3818V27.3182V27.2545H9.59821H9.53178H9.45827H9.38485H9.31142H9.24491H9.1714H9.09798H9.02455H8.95812H8.88461H8.81119H8.73768H8.67125H8.59774V27.1909V27.1336V27.0699V27.0062V26.9425V26.8852V26.8216V26.7579V26.6942V26.6369V26.5732V26.5096V26.4459V26.3886V26.3253H8.67125H8.74509H8.8186H8.89195H8.96546H9.03889H9.11281H9.18624H9.25967H9.33318H9.40702H9.48044H9.55387H9.6273H9.70122H9.77473H9.84816H9.92159H9.99543H10.0689H10.1424H10.2158H10.2896H10.3631H10.4366H10.51H10.5839H10.6573H10.7309H10.8043H10.8781H10.9516H11.0251V26.3886V26.4522V26.5159V26.5732V26.6369V26.7006V26.7642V26.8279V26.8916V26.9488V27.0126V27.0763V27.1399V27.2036V27.2672V27.3309V27.3882V27.4519V27.5156V27.5793V27.6429V27.7066V27.7702V27.8276V27.8912V27.9549V28.0186V28.0822V28.1459V28.2032V28.2669V28.3305V28.3942L10.9738 28.4324Z" fill="white"/>
<path d="M8.60823 13.9041H11.7961V11.7791H8.60823V7.44083H11.923V5.31582H5.90112V20.6523H11.9735V18.5273H8.60823V13.9041Z" fill="white"/>
<path d="M31.4422 14.3643V17.8261C31.4422 18.4396 31.1131 18.7242 30.4303 18.7242H29.924C29.2157 18.7242 28.8866 18.4396 28.8866 17.8261V8.14182C28.8866 7.52836 29.2157 7.24372 29.924 7.24372H30.3795C31.0627 7.24372 31.3917 7.52836 31.3917 8.14182V11.1437H34.0481V8.01036C34.0481 6.10444 32.9854 5.18418 30.7846 5.18418H29.4686C27.2678 5.18418 26.1794 6.12617 26.1794 8.03245V17.9354C26.1794 19.8418 27.2678 20.7837 29.4686 20.7837H30.8098C33.0111 20.7837 34.0988 19.8418 34.0988 17.9354V14.3643H31.4422Z" fill="white"/>
<path d="M22.0413 20.6523H24.7488V5.31574H22.0413V20.6523Z" fill="white"/>
<path d="M18.1128 12.1295C18.1128 12.7431 17.7842 13.0281 17.101 13.0281H15.9876V7.37528H17.101C17.7842 7.37528 18.1128 7.66 18.1128 8.27338V12.1295ZM17.5309 5.31575H13.2804V20.6523H15.9876V15.0872H17.5309C19.7321 15.0872 20.82 14.1453 20.82 12.2393V8.16402C20.82 6.25774 19.7321 5.31575 17.5309 5.31575" fill="white"/>
<path fill-rule="evenodd" clip-rule="evenodd" d="M12.2878 34.5196H27.7855L19.8752 36.7676L12.2878 34.5196Z" fill="white"/>
</svg>
