<svg width="40" height="40" viewBox="0 0 40 40" fill="none" xmlns="http://www.w3.org/2000/svg">
<path d="M36.4706 40H3.52941C2.59335 40 1.69563 39.5922 1.03374 38.8662C0.371848 38.1403 0 37.1557 0 36.129L0 3.87097C0 2.84432 0.371848 1.85973 1.03374 1.13378C1.69563 0.407833 2.59335 0 3.52941 0L36.4706 0C37.4066 0 38.3044 0.407833 38.9663 1.13378C39.6282 1.85973 40 2.84432 40 3.87097V36.129C40 37.1557 39.6282 38.1403 38.9663 38.8662C38.3044 39.5922 37.4066 40 36.4706 40ZM4.70588 31.6129C4.70588 32.1262 4.89181 32.6185 5.22275 32.9815C5.5537 33.3445 6.00256 33.5484 6.47059 33.5484H12.9412V30.9677H7.64706C7.49105 30.9677 7.34143 30.8998 7.23111 30.7788C7.1208 30.6578 7.05882 30.4937 7.05882 30.3226V26.4516C7.05882 26.2805 7.1208 26.1164 7.23111 25.9954C7.34143 25.8744 7.49105 25.8065 7.64706 25.8065H12.9412V23.2258H6.47059C6.00256 23.2258 5.5537 23.4297 5.22275 23.7927C4.89181 24.1557 4.70588 24.648 4.70588 25.1613V31.6129ZM14.1176 8.3871C14.1176 7.87377 13.9317 7.38148 13.6008 7.0185C13.2698 6.65553 12.821 6.45161 12.3529 6.45161H6.47059C6.00256 6.45161 5.5537 6.65553 5.22275 7.0185C4.89181 7.38148 4.70588 7.87377 4.70588 8.3871V14.8387C4.70588 15.352 4.89181 15.8443 5.22275 16.2073C5.5537 16.5703 6.00256 16.7742 6.47059 16.7742H10.5882V14.1935H7.64706C7.49105 14.1935 7.34143 14.1256 7.23111 14.0046C7.1208 13.8836 7.05882 13.7195 7.05882 13.5484V9.67742C7.05882 9.50631 7.1208 9.34221 7.23111 9.22122C7.34143 9.10023 7.49105 9.03226 7.64706 9.03226H11.1765C11.3325 9.03226 11.4821 9.10023 11.5924 9.22122C11.7027 9.34221 11.7647 9.50631 11.7647 9.67742V17.4194C11.7647 17.5905 11.7027 17.7546 11.5924 17.8756C11.4821 17.9965 11.3325 18.0645 11.1765 18.0645H4.70588V20.6452H12.3529C12.821 20.6452 13.2698 20.4412 13.6008 20.0783C13.9317 19.7153 14.1176 19.223 14.1176 18.7097V8.3871ZM14.1176 25.1613V31.6129C14.1176 32.1262 14.3036 32.6185 14.6345 32.9815C14.9655 33.3445 15.4143 33.5484 15.8824 33.5484H21.7647C22.2327 33.5484 22.6816 33.3445 23.0125 32.9815C23.3435 32.6185 23.5294 32.1262 23.5294 31.6129V25.1613C23.5294 24.648 23.3435 24.1557 23.0125 23.7927C22.6816 23.4297 22.2327 23.2258 21.7647 23.2258H15.8824C15.4143 23.2258 14.9655 23.4297 14.6345 23.7927C14.3036 24.1557 14.1176 24.648 14.1176 25.1613ZM24.7059 8.3871C24.7059 7.87377 24.52 7.38148 24.189 7.0185C23.8581 6.65553 23.4092 6.45161 22.9412 6.45161H17.0588C16.5908 6.45161 16.1419 6.65553 15.811 7.0185C15.48 7.38148 15.2941 7.87377 15.2941 8.3871V14.8387C15.2941 15.352 15.48 15.8443 15.811 16.2073C16.1419 16.5703 16.5908 16.7742 17.0588 16.7742H22.9412C23.4092 16.7742 23.8581 16.5703 24.189 16.2073C24.52 15.8443 24.7059 15.352 24.7059 14.8387V8.3871ZM35.2941 8.3871C35.2941 7.87377 35.1082 7.38148 34.7772 7.0185C34.4463 6.65553 33.9974 6.45161 33.5294 6.45161H27.6471C27.179 6.45161 26.7302 6.65553 26.3992 7.0185C26.0683 7.38148 25.8824 7.87377 25.8824 8.3871V14.8387C25.8824 15.352 26.0683 15.8443 26.3992 16.2073C26.7302 16.5703 27.179 16.7742 27.6471 16.7742H31.7647V14.1935H28.8235C28.6675 14.1935 28.5179 14.1256 28.4076 14.0046C28.2973 13.8836 28.2353 13.7195 28.2353 13.5484V9.67742C28.2353 9.50631 28.2973 9.34221 28.4076 9.22122C28.5179 9.10023 28.6675 9.03226 28.8235 9.03226H32.3529C32.509 9.03226 32.6586 9.10023 32.7689 9.22122C32.8792 9.34221 32.9412 9.50631 32.9412 9.67742V17.4194C32.9412 17.5905 32.8792 17.7546 32.7689 17.8756C32.6586 17.9965 32.509 18.0645 32.3529 18.0645H25.8824V20.6452H33.5294C33.9974 20.6452 34.4463 20.4412 34.7772 20.0783C35.1082 19.7153 35.2941 19.223 35.2941 18.7097V8.3871ZM35.2941 23.2258H26.4706C26.0026 23.2258 25.5537 23.4297 25.2228 23.7927C24.8918 24.1557 24.7059 24.648 24.7059 25.1613V33.5484H27.0588V26.4516C27.0588 26.2805 27.1208 26.1164 27.2311 25.9954C27.3414 25.8744 27.4911 25.8065 27.6471 25.8065H28.8235V33.5484H31.1765V25.8065H32.9412V33.5484H35.2941V23.2258ZM21.7647 14.1935H18.2353C18.0793 14.1935 17.9297 14.1256 17.8193 14.0046C17.709 13.8836 17.6471 13.7195 17.6471 13.5484V9.67742C17.6471 9.50631 17.709 9.34221 17.8193 9.22122C17.9297 9.10023 18.0793 9.03226 18.2353 9.03226H21.7647C21.9207 9.03226 22.0703 9.10023 22.1807 9.22122C22.291 9.34221 22.3529 9.50631 22.3529 9.67742V13.5484C22.3529 13.7195 22.291 13.8836 22.1807 14.0046C22.0703 14.1256 21.9207 14.1935 21.7647 14.1935ZM17.0588 25.8065H20.5882C20.7442 25.8065 20.8939 25.8744 21.0042 25.9954C21.1145 26.1164 21.1765 26.2805 21.1765 26.4516V30.3226C21.1765 30.4937 21.1145 30.6578 21.0042 30.7788C20.8939 30.8998 20.7442 30.9677 20.5882 30.9677H17.0588C16.9028 30.9677 16.7532 30.8998 16.6429 30.7788C16.5326 30.6578 16.4706 30.4937 16.4706 30.3226V26.4516C16.4706 26.2805 16.5326 26.1164 16.6429 25.9954C16.7532 25.8744 16.9028 25.8065 17.0588 25.8065Z" fill="#333333"/>
<path d="M36.4706 40H3.52941C2.59335 40 1.69563 39.5922 1.03374 38.8662C0.371848 38.1403 0 37.1557 0 36.129L0 3.87097C0 2.84432 0.371848 1.85973 1.03374 1.13378C1.69563 0.407833 2.59335 0 3.52941 0L36.4706 0C37.4066 0 38.3044 0.407833 38.9663 1.13378C39.6282 1.85973 40 2.84432 40 3.87097V36.129C40 37.1557 39.6282 38.1403 38.9663 38.8662C38.3044 39.5922 37.4066 40 36.4706 40ZM4.70588 31.6129C4.70588 32.1262 4.89181 32.6185 5.22275 32.9815C5.5537 33.3445 6.00256 33.5484 6.47059 33.5484H12.9412V30.9677H7.64706C7.49105 30.9677 7.34143 30.8998 7.23111 30.7788C7.1208 30.6578 7.05882 30.4937 7.05882 30.3226V26.4516C7.05882 26.2805 7.1208 26.1164 7.23111 25.9954C7.34143 25.8744 7.49105 25.8065 7.64706 25.8065H12.9412V23.2258H6.47059C6.00256 23.2258 5.5537 23.4297 5.22275 23.7927C4.89181 24.1557 4.70588 24.648 4.70588 25.1613V31.6129ZM14.1176 8.3871C14.1176 7.87377 13.9317 7.38148 13.6008 7.0185C13.2698 6.65553 12.821 6.45161 12.3529 6.45161H6.47059C6.00256 6.45161 5.5537 6.65553 5.22275 7.0185C4.89181 7.38148 4.70588 7.87377 4.70588 8.3871V14.8387C4.70588 15.352 4.89181 15.8443 5.22275 16.2073C5.5537 16.5703 6.00256 16.7742 6.47059 16.7742H10.5882V14.1935H7.64706C7.49105 14.1935 7.34143 14.1256 7.23111 14.0046C7.1208 13.8836 7.05882 13.7195 7.05882 13.5484V9.67742C7.05882 9.50631 7.1208 9.34221 7.23111 9.22122C7.34143 9.10023 7.49105 9.03226 7.64706 9.03226H11.1765C11.3325 9.03226 11.4821 9.10023 11.5924 9.22122C11.7027 9.34221 11.7647 9.50631 11.7647 9.67742V17.4194C11.7647 17.5905 11.7027 17.7546 11.5924 17.8756C11.4821 17.9965 11.3325 18.0645 11.1765 18.0645H4.70588V20.6452H12.3529C12.821 20.6452 13.2698 20.4412 13.6008 20.0783C13.9317 19.7153 14.1176 19.223 14.1176 18.7097V8.3871ZM14.1176 25.1613V31.6129C14.1176 32.1262 14.3036 32.6185 14.6345 32.9815C14.9655 33.3445 15.4143 33.5484 15.8824 33.5484H21.7647C22.2327 33.5484 22.6816 33.3445 23.0125 32.9815C23.3435 32.6185 23.5294 32.1262 23.5294 31.6129V25.1613C23.5294 24.648 23.3435 24.1557 23.0125 23.7927C22.6816 23.4297 22.2327 23.2258 21.7647 23.2258H15.8824C15.4143 23.2258 14.9655 23.4297 14.6345 23.7927C14.3036 24.1557 14.1176 24.648 14.1176 25.1613ZM24.7059 8.3871C24.7059 7.87377 24.52 7.38148 24.189 7.0185C23.8581 6.65553 23.4092 6.45161 22.9412 6.45161H17.0588C16.5908 6.45161 16.1419 6.65553 15.811 7.0185C15.48 7.38148 15.2941 7.87377 15.2941 8.3871V14.8387C15.2941 15.352 15.48 15.8443 15.811 16.2073C16.1419 16.5703 16.5908 16.7742 17.0588 16.7742H22.9412C23.4092 16.7742 23.8581 16.5703 24.189 16.2073C24.52 15.8443 24.7059 15.352 24.7059 14.8387V8.3871ZM35.2941 8.3871C35.2941 7.87377 35.1082 7.38148 34.7772 7.0185C34.4463 6.65553 33.9974 6.45161 33.5294 6.45161H27.6471C27.179 6.45161 26.7302 6.65553 26.3992 7.0185C26.0683 7.38148 25.8824 7.87377 25.8824 8.3871V14.8387C25.8824 15.352 26.0683 15.8443 26.3992 16.2073C26.7302 16.5703 27.179 16.7742 27.6471 16.7742H31.7647V14.1935H28.8235C28.6675 14.1935 28.5179 14.1256 28.4076 14.0046C28.2973 13.8836 28.2353 13.7195 28.2353 13.5484V9.67742C28.2353 9.50631 28.2973 9.34221 28.4076 9.22122C28.5179 9.10023 28.6675 9.03226 28.8235 9.03226H32.3529C32.509 9.03226 32.6586 9.10023 32.7689 9.22122C32.8792 9.34221 32.9412 9.50631 32.9412 9.67742V17.4194C32.9412 17.5905 32.8792 17.7546 32.7689 17.8756C32.6586 17.9965 32.509 18.0645 32.3529 18.0645H25.8824V20.6452H33.5294C33.9974 20.6452 34.4463 20.4412 34.7772 20.0783C35.1082 19.7153 35.2941 19.223 35.2941 18.7097V8.3871ZM35.2941 23.2258H26.4706C26.0026 23.2258 25.5537 23.4297 25.2228 23.7927C24.8918 24.1557 24.7059 24.648 24.7059 25.1613V33.5484H27.0588V26.4516C27.0588 26.2805 27.1208 26.1164 27.2311 25.9954C27.3414 25.8744 27.4911 25.8065 27.6471 25.8065H28.8235V33.5484H31.1765V25.8065H32.9412V33.5484H35.2941V23.2258ZM21.7647 14.1935H18.2353C18.0793 14.1935 17.9297 14.1256 17.8193 14.0046C17.709 13.8836 17.6471 13.7195 17.6471 13.5484V9.67742C17.6471 9.50631 17.709 9.34221 17.8193 9.22122C17.9297 9.10023 18.0793 9.03226 18.2353 9.03226H21.7647C21.9207 9.03226 22.0703 9.10023 22.1807 9.22122C22.291 9.34221 22.3529 9.50631 22.3529 9.67742V13.5484C22.3529 13.7195 22.291 13.8836 22.1807 14.0046C22.0703 14.1256 21.9207 14.1935 21.7647 14.1935ZM17.0588 25.8065H20.5882C20.7442 25.8065 20.8939 25.8744 21.0042 25.9954C21.1145 26.1164 21.1765 26.2805 21.1765 26.4516V30.3226C21.1765 30.4937 21.1145 30.6578 21.0042 30.7788C20.8939 30.8998 20.7442 30.9677 20.5882 30.9677H17.0588C16.9028 30.9677 16.7532 30.8998 16.6429 30.7788C16.5326 30.6578 16.4706 30.4937 16.4706 30.3226V26.4516C16.4706 26.2805 16.5326 26.1164 16.6429 25.9954C16.7532 25.8744 16.9028 25.8065 17.0588 25.8065Z" fill="black" fill-opacity="0.2"/>
</svg>
