<svg width="234" height="50" viewBox="0 0 234 50" fill="none" xmlns="http://www.w3.org/2000/svg">
<path d="M43.76 33.384C43.248 32.4453 42.544 31.7306 41.648 31.24C40.752 30.7493 39.7067 30.504 38.512 30.504C37.1893 30.504 36.016 30.8026 34.992 31.4C33.968 31.9973 33.168 32.8506 32.592 33.96C32.016 35.0693 31.728 36.3493 31.728 37.8C31.728 39.2933 32.016 40.5946 32.592 41.704C33.1893 42.8133 34.0107 43.6666 35.056 44.264C36.1013 44.8613 37.3173 45.16 38.704 45.16C40.4107 45.16 41.808 44.712 42.896 43.816C43.984 42.8986 44.6987 41.6293 45.04 40.008H37.36V36.584H49.456V40.488C49.1573 42.0453 48.5173 43.4853 47.536 44.808C46.5547 46.1306 45.2853 47.1973 43.728 48.008C42.192 48.7973 40.464 49.192 38.544 49.192C36.3893 49.192 34.4373 48.712 32.688 47.752C30.96 46.7706 29.5947 45.416 28.592 43.688C27.6107 41.96 27.12 39.9973 27.12 37.8C27.12 35.6026 27.6107 33.64 28.592 31.912C29.5947 30.1626 30.96 28.808 32.688 27.848C34.4373 26.8666 36.3787 26.376 38.512 26.376C41.0293 26.376 43.216 26.9946 45.072 28.232C46.928 29.448 48.208 31.1653 48.912 33.384H43.76ZM51.6185 40.072C51.6185 38.28 51.9705 36.6906 52.6745 35.304C53.3998 33.9173 54.3705 32.8506 55.5865 32.104C56.8238 31.3573 58.1998 30.984 59.7145 30.984C61.0372 30.984 62.1892 31.2506 63.1705 31.784C64.1732 32.3173 64.9732 32.9893 65.5705 33.8V31.272H70.0825V49H65.5705V46.408C64.9945 47.24 64.1945 47.9333 63.1705 48.488C62.1678 49.0213 61.0052 49.288 59.6825 49.288C58.1892 49.288 56.8238 48.904 55.5865 48.136C54.3705 47.368 53.3998 46.2906 52.6745 44.904C51.9705 43.496 51.6185 41.8853 51.6185 40.072ZM65.5705 40.136C65.5705 39.048 65.3572 38.12 64.9305 37.352C64.5038 36.5626 63.9278 35.9653 63.2025 35.56C62.4772 35.1333 61.6985 34.92 60.8665 34.92C60.0345 34.92 59.2665 35.1226 58.5625 35.528C57.8585 35.9333 57.2825 36.5306 56.8345 37.32C56.4078 38.088 56.1945 39.0053 56.1945 40.072C56.1945 41.1386 56.4078 42.0773 56.8345 42.888C57.2825 43.6773 57.8585 44.2853 58.5625 44.712C59.2878 45.1386 60.0558 45.352 60.8665 45.352C61.6985 45.352 62.4772 45.1493 63.2025 44.744C63.9278 44.3173 64.5038 43.72 64.9305 42.952C65.3572 42.1626 65.5705 41.224 65.5705 40.136ZM96.474 31.016C98.65 31.016 100.399 31.688 101.722 33.032C103.066 34.3546 103.738 36.2106 103.738 38.6V49H99.258V39.208C99.258 37.8213 98.906 36.7653 98.202 36.04C97.498 35.2933 96.538 34.92 95.322 34.92C94.106 34.92 93.1353 35.2933 92.41 36.04C91.706 36.7653 91.354 37.8213 91.354 39.208V49H86.874V39.208C86.874 37.8213 86.522 36.7653 85.818 36.04C85.114 35.2933 84.154 34.92 82.938 34.92C81.7007 34.92 80.7193 35.2933 79.994 36.04C79.29 36.7653 78.938 37.8213 78.938 39.208V49H74.458V31.272H78.938V33.416C79.514 32.6693 80.25 32.0826 81.146 31.656C82.0633 31.2293 83.066 31.016 84.154 31.016C85.5407 31.016 86.778 31.3146 87.866 31.912C88.954 32.488 89.7967 33.32 90.394 34.408C90.97 33.384 91.802 32.5626 92.89 31.944C93.9993 31.3253 95.194 31.016 96.474 31.016ZM124.469 39.752C124.469 40.392 124.427 40.968 124.341 41.48H111.381C111.488 42.76 111.936 43.7626 112.725 44.488C113.515 45.2133 114.485 45.576 115.637 45.576C117.301 45.576 118.485 44.8613 119.189 43.432H124.021C123.509 45.1386 122.528 46.5466 121.077 47.656C119.627 48.744 117.845 49.288 115.733 49.288C114.027 49.288 112.491 48.9146 111.125 48.168C109.781 47.4 108.725 46.3226 107.957 44.936C107.211 43.5493 106.837 41.9493 106.837 40.136C106.837 38.3013 107.211 36.6906 107.957 35.304C108.704 33.9173 109.749 32.8506 111.093 32.104C112.437 31.3573 113.984 30.984 115.733 30.984C117.419 30.984 118.923 31.3466 120.245 32.072C121.589 32.7973 122.624 33.832 123.349 35.176C124.096 36.4986 124.469 38.024 124.469 39.752ZM119.829 38.472C119.808 37.32 119.392 36.4026 118.581 35.72C117.771 35.016 116.779 34.664 115.605 34.664C114.496 34.664 113.557 35.0053 112.789 35.688C112.043 36.3493 111.584 37.2773 111.413 38.472H119.829ZM134.523 49.288C133.073 49.288 131.771 49.032 130.619 48.52C129.467 47.9866 128.55 47.272 127.867 46.376C127.206 45.48 126.843 44.488 126.779 43.4H131.291C131.377 44.0826 131.707 44.648 132.283 45.096C132.881 45.544 133.617 45.768 134.491 45.768C135.345 45.768 136.006 45.5973 136.475 45.256C136.966 44.9146 137.211 44.4773 137.211 43.944C137.211 43.368 136.913 42.9413 136.315 42.664C135.739 42.3653 134.811 42.0453 133.531 41.704C132.209 41.384 131.121 41.0533 130.267 40.712C129.435 40.3706 128.71 39.848 128.091 39.144C127.494 38.44 127.195 37.4906 127.195 36.296C127.195 35.3146 127.473 34.4186 128.027 33.608C128.603 32.7973 129.414 32.1573 130.459 31.688C131.526 31.2186 132.774 30.984 134.203 30.984C136.315 30.984 138.001 31.5173 139.259 32.584C140.518 33.6293 141.211 35.048 141.339 36.84H137.051C136.987 36.136 136.689 35.5813 136.155 35.176C135.643 34.7493 134.95 34.536 134.075 34.536C133.265 34.536 132.635 34.6853 132.187 34.984C131.761 35.2826 131.547 35.6986 131.547 36.232C131.547 36.8293 131.846 37.288 132.443 37.608C133.041 37.9066 133.969 38.216 135.227 38.536C136.507 38.856 137.563 39.1866 138.395 39.528C139.227 39.8693 139.942 40.4026 140.539 41.128C141.158 41.832 141.478 42.7706 141.499 43.944C141.499 44.968 141.211 45.8853 140.635 46.696C140.081 47.5066 139.27 48.1466 138.203 48.616C137.158 49.064 135.931 49.288 134.523 49.288ZM144.473 44.456V40.936L154.937 25.96H160.153V40.552H162.969V44.456H160.153V49H155.673V44.456H144.473ZM155.961 30.76L149.401 40.552H155.961V30.76ZM180.125 26.664V30.28H170.813V36.008H177.949V39.56H170.813V49H166.333V26.664H180.125ZM187.782 34.024C188.358 33.0853 189.104 32.3493 190.022 31.816C190.96 31.2826 192.027 31.016 193.222 31.016V35.72H192.038C190.63 35.72 189.563 36.0506 188.838 36.712C188.134 37.3733 187.782 38.5253 187.782 40.168V49H183.302V31.272H187.782V34.024ZM212.719 39.752C212.719 40.392 212.677 40.968 212.591 41.48H199.631C199.738 42.76 200.186 43.7626 200.975 44.488C201.765 45.2133 202.735 45.576 203.887 45.576C205.551 45.576 206.735 44.8613 207.439 43.432H212.271C211.759 45.1386 210.778 46.5466 209.327 47.656C207.877 48.744 206.095 49.288 203.983 49.288C202.277 49.288 200.741 48.9146 199.375 48.168C198.031 47.4 196.975 46.3226 196.207 44.936C195.461 43.5493 195.087 41.9493 195.087 40.136C195.087 38.3013 195.461 36.6906 196.207 35.304C196.954 33.9173 197.999 32.8506 199.343 32.104C200.687 31.3573 202.234 30.984 203.983 30.984C205.669 30.984 207.173 31.3466 208.495 32.072C209.839 32.7973 210.874 33.832 211.599 35.176C212.346 36.4986 212.719 38.024 212.719 39.752ZM208.079 38.472C208.058 37.32 207.642 36.4026 206.831 35.72C206.021 35.016 205.029 34.664 203.855 34.664C202.746 34.664 201.807 35.0053 201.039 35.688C200.293 36.3493 199.834 37.2773 199.663 38.472H208.079ZM232.469 39.752C232.469 40.392 232.427 40.968 232.341 41.48H219.381C219.488 42.76 219.936 43.7626 220.725 44.488C221.515 45.2133 222.485 45.576 223.637 45.576C225.301 45.576 226.485 44.8613 227.189 43.432H232.021C231.509 45.1386 230.528 46.5466 229.077 47.656C227.627 48.744 225.845 49.288 223.733 49.288C222.027 49.288 220.491 48.9146 219.125 48.168C217.781 47.4 216.725 46.3226 215.957 44.936C215.211 43.5493 214.837 41.9493 214.837 40.136C214.837 38.3013 215.211 36.6906 215.957 35.304C216.704 33.9173 217.749 32.8506 219.093 32.104C220.437 31.3573 221.984 30.984 223.733 30.984C225.419 30.984 226.923 31.3466 228.245 32.072C229.589 32.7973 230.624 33.832 231.349 35.176C232.096 36.4986 232.469 38.024 232.469 39.752ZM227.829 38.472C227.808 37.32 227.392 36.4026 226.581 35.72C225.771 35.016 224.779 34.664 223.605 34.664C222.496 34.664 221.557 35.0053 220.789 35.688C220.043 36.3493 219.584 37.2773 219.413 38.472H227.829Z" fill="white"/>
<g clip-path="url(#clip0_3_43)">
<path d="M37.6401 9.227L37.7313 9.19691C37.9948 9.11 38.268 9.15471 38.4846 9.28923C43.6469 11.9833 48.5106 19.9259 49.9624 25.8366C50.3645 27.4756 50.5139 28.9844 50.347 30.2155C50.1582 31.6186 49.5722 32.6921 48.5064 33.2759C47.1487 34.0197 45.0897 33.8525 42.1879 32.3565C41.814 32.1653 41.4288 31.974 41.0346 31.7782C39.6925 31.116 38.2786 30.4177 36.9588 29.4485L21.1777 34.6546C20.6937 36.23 19.9728 37.6326 19.2848 38.9645C19.0868 39.3519 18.8899 39.7315 18.7054 40.1032C17.2634 43.0322 15.7081 44.3918 14.1743 44.6018C12.9703 44.7668 11.8572 44.2538 10.874 43.2374C10.0061 42.3438 9.22957 41.0457 8.57752 39.4892C6.21833 33.8479 5.4048 24.513 7.98887 19.2897C8.09867 19.0662 8.28699 18.9104 8.50655 18.838L8.50543 18.8346L8.60001 18.8034C8.8601 17.991 9.27739 17.269 9.81133 16.6509C10.6218 15.7131 11.6981 15.0247 12.8669 14.6392C14.0389 14.2525 15.3136 14.1653 16.5196 14.4379C17.3121 14.6147 18.077 14.9466 18.7627 15.447L21.4346 14.5656C19.566 9.5939 20.5488 7.86141 22.5726 7.03646C23.3057 6.73842 24.143 6.60829 25.0196 6.47266C26.6761 6.21459 28.507 5.92895 29.3331 4.28932C29.555 3.8491 30.0887 3.67303 30.5289 3.89486C30.9691 4.11668 31.1452 4.65037 30.9234 5.0906C29.6886 7.54667 27.3839 7.90621 25.2998 8.23044C24.5267 8.35064 23.793 8.46535 23.2401 8.68522C22.1465 9.12837 21.711 10.3058 23.128 14.0107L27.4752 12.5766C27.7319 11.7653 28.1514 11.0389 28.6831 10.4253C29.4936 9.48745 30.5699 8.79904 31.7353 8.4146C32.9006 8.03016 34.1764 7.94638 35.3847 8.21445C36.1816 8.39351 36.9499 8.72433 37.6401 9.227Z" fill="#262626"/>
<path d="M34.788 13.1043C35.5157 13.471 36.0245 14.0934 36.2607 14.8095C36.4958 15.5222 36.4573 16.3252 36.0906 17.0529L36.0884 17.0574C35.7217 17.7852 35.0992 18.2939 34.3865 18.529C33.6738 18.7641 32.8708 18.7256 32.1431 18.3589L32.1386 18.3567C31.4109 17.99 30.9022 17.3675 30.667 16.6548C30.4308 15.9387 30.4693 15.1358 30.836 14.408C31.2004 13.6848 31.8262 13.175 32.5423 12.9387C33.255 12.7036 34.058 12.7421 34.7846 13.1054L34.788 13.1043Z" fill="black"/>
<path d="M34.3059 14.0611C35.2313 14.5274 35.6012 15.6488 35.1349 16.5742C34.6687 17.4996 33.5472 17.8695 32.6219 17.4032C31.6965 16.937 31.3265 15.8155 31.7928 14.8902C32.2579 13.9726 33.3827 13.6016 34.3059 14.0611Z" fill="#FFD54F"/>
<path d="M31.7442 18.2171C31.7757 18.233 31.8038 18.2499 31.8318 18.2669C32.5123 18.6379 32.9918 19.24 33.2169 19.9223C33.452 20.6351 33.4136 21.438 33.0469 22.1658L33.0446 22.1703L33.0491 22.1725C32.6824 22.9002 32.06 23.409 31.3439 23.6452C30.6278 23.8814 29.8248 23.843 29.0971 23.4763C28.3694 23.1096 27.8606 22.4871 27.6244 21.771C27.3882 21.0549 27.4266 20.252 27.7933 19.5242L27.7956 19.5197C27.8114 19.4883 27.8284 19.4602 27.8442 19.4288C28.2164 18.7517 28.8162 18.2766 29.4986 18.0516C30.2113 17.8164 31.0143 17.8549 31.7409 18.2182L31.7442 18.2171Z" fill="black"/>
<path d="M31.2621 19.1739C32.1875 19.6402 32.5575 20.7616 32.0912 21.687C31.6249 22.6124 30.5035 22.9824 29.5781 22.5161C28.6527 22.0498 28.2828 20.9284 28.749 20.003C29.2164 19.081 30.3412 18.7099 31.2621 19.1739Z" fill="#2196F3"/>
<path d="M40.2732 15.4035C41.0009 15.7702 41.5097 16.3926 41.7459 17.1087C41.9821 17.8248 41.9436 18.6278 41.577 19.3555C41.2103 20.0832 40.5878 20.5919 39.8717 20.8282C39.159 21.0633 38.356 21.0248 37.6283 20.6581L37.6238 20.6559L37.6215 20.6604C36.8938 20.2937 36.3851 19.6712 36.1489 18.9551C35.9126 18.239 35.9511 17.4361 36.3178 16.7083C36.6845 15.9806 37.3069 15.4719 38.023 15.2356C38.7391 14.9994 39.5466 15.0402 40.2732 15.4035Z" fill="black"/>
<path d="M39.7911 16.3603C40.7165 16.8266 41.0864 17.948 40.6201 18.8734C40.1539 19.7988 39.0324 20.1687 38.107 19.7024C37.1817 19.2361 36.8117 18.1147 37.278 17.1893C37.7454 16.2673 38.8668 15.8974 39.7911 16.3603Z" fill="#F44336"/>
<path d="M37.3442 20.853C38.072 21.2196 38.5807 21.8421 38.8169 22.5582C39.0521 23.2709 39.0136 24.0739 38.6469 24.8016L38.6446 24.8061L38.6491 24.8084C38.2824 25.5361 37.66 26.0448 36.9439 26.2811C36.2278 26.5173 35.4248 26.4788 34.6971 26.1121C34.6656 26.0963 34.6376 26.0793 34.6095 26.0624C33.929 25.6913 33.4495 25.0892 33.2244 24.4069C32.9882 23.6908 33.0266 22.8878 33.3933 22.1601C33.4092 22.1286 33.4228 22.1017 33.4431 22.0725C33.8141 21.392 34.414 20.917 35.0997 20.6908C35.8124 20.4557 36.6154 20.4941 37.342 20.8575L37.3454 20.8563L37.3442 20.853Z" fill="black"/>
<path d="M36.8621 21.8098C37.7875 22.2761 38.1575 23.3975 37.6912 24.3229C37.2249 25.2483 36.1035 25.6182 35.1781 25.1519C34.2527 24.6856 33.8828 23.5642 34.349 22.6388C34.8142 21.7213 35.939 21.3503 36.8621 21.8098Z" fill="#4CAF50"/>
<path fill-rule="evenodd" clip-rule="evenodd" d="M14.8012 20.5368C15.8618 20.1869 17.0129 20.7697 17.3617 21.827L18.1038 24.0766L20.3534 23.3344C21.4141 22.9845 22.5652 23.5674 22.914 24.6246C23.2639 25.6853 22.681 26.8364 21.6238 27.1851L19.3742 27.9273L20.1163 30.1769C20.4662 31.2375 19.8833 32.3886 18.8261 32.7374C17.7655 33.0873 16.6144 32.5045 16.2656 31.4472L15.5235 29.1976L13.2738 29.9397C12.2132 30.2896 11.0621 29.7068 10.7133 28.6495C10.3634 27.5889 10.9463 26.4378 12.0035 26.089L14.2531 25.3469L13.511 23.0973C13.1622 22.04 13.7406 20.8867 14.8012 20.5368Z" fill="white"/>
<path fill-rule="evenodd" clip-rule="evenodd" d="M22.0625 24.9842L21.2409 26.6148L20.4319 24.1625L22.0625 24.9842ZM15.1941 21.5233L16.8247 22.3449L14.3724 23.1539L15.1941 21.5233ZM11.7366 28.3906L13.3672 29.2123L12.5582 26.76L11.7366 28.3906ZM18.6005 31.8492L19.4222 30.2186L16.9699 31.0276L18.6005 31.8492Z" fill="#262626"/>
</g>
<defs>
<clipPath id="clip0_3_43">
<rect width="43.7067" height="33.8471" fill="white" transform="translate(0 13.6927) rotate(-18.2574)"/>
</clipPath>
</defs>
</svg>
