<svg width="40" height="54" viewBox="0 0 40 54" fill="none" xmlns="http://www.w3.org/2000/svg">
<path d="M19.1068 0.0726495C19.402 -0.0922851 19.8385 0.0302706 19.94 0.372739C20.0494 0.655648 19.8602 0.914503 19.7052 1.13327C18.6075 2.69671 17.8792 4.51328 17.5349 6.39285C17.3263 6.48219 17.2659 6.70211 17.3309 6.90942C17.4335 6.94722 17.5372 6.98043 17.6421 7.0125C19.7724 6.82466 21.9335 6.8636 24.0308 7.31374C27.8469 8.08572 31.4134 10.026 34.1547 12.8001C36.888 15.5456 38.8064 19.1031 39.5826 22.9092C40.4431 27.0303 39.9621 31.4171 38.241 35.2553C34.5913 43.0931 28.4385 49.7225 20.91 53.9249C20.6672 54.0383 20.3173 54.0429 20.1508 53.8001C19.9548 53.5458 20.0357 53.1839 20.2295 52.9525C21.2451 51.5288 21.954 49.8921 22.3393 48.1855C22.4134 47.8315 22.5148 47.473 22.4841 47.1088C22.3598 46.9462 22.1546 46.9954 21.9803 47.0011C18.326 47.3688 14.5657 46.7125 11.2636 45.0906C7.72674 43.3783 4.72558 40.579 2.74115 37.1761C0.902609 34.0457 -0.0639632 30.4 0.00328651 26.7634C0.0158246 23.4258 0.921986 20.1156 2.51774 17.1938C6.23243 10.0271 12.0649 3.97954 19.1068 0.0726495ZM18.9016 19.2245C16.7279 19.5178 14.723 20.8006 13.5057 22.6286C12.6816 23.8839 12.1823 25.3752 12.1926 26.8848C12.131 28.9076 12.9335 30.9337 14.3241 32.3907C15.5391 33.7056 17.2272 34.5623 18.9973 34.7914C20.7994 35.0308 22.6812 34.607 24.2075 33.6116C25.7588 32.622 26.9408 31.0597 27.4697 29.2901C28.4624 26.2182 27.2725 22.6194 24.6828 20.7215C23.0562 19.4777 20.9236 18.9256 18.9016 19.2245V19.2245Z" fill="#F15A23"/>
</svg>
