<svg width="40" height="40" viewBox="0 0 40 40" fill="none" xmlns="http://www.w3.org/2000/svg">
<path d="M20 39.9999C31.0457 39.9999 40 31.0456 40 20C40 8.95432 31.0457 0 20 0C8.9543 0 0 8.95432 0 20C0 31.0456 8.9543 39.9999 20 39.9999Z" fill="url(#paint0_linear_1_38)"/>
<path fill-rule="evenodd" clip-rule="evenodd" d="M22.5859 19.6633L30.6905 19.2432L32.6008 12.488L27.0098 8.04614L20.1383 13.879L22.5859 19.6633Z" fill="url(#paint1_linear_1_38)"/>
<path fill-rule="evenodd" clip-rule="evenodd" d="M27.0275 19.9946L31 19L32.9765 16.0234L28.9765 12.0234L24.0275 16.9946L27.0275 19.9946Z" fill="url(#paint2_linear_1_38)"/>
<path fill-rule="evenodd" clip-rule="evenodd" d="M31.9237 9.33032C33.2069 10.6762 33.9999 12.4939 33.9999 14.5002C33.9999 18.6423 30.642 22.0002 26.4999 22.0002C26.2964 21.9987 26.0931 21.9889 25.8905 21.9709L19.994 27.0822C19.9857 27.8218 19.8407 28.5535 19.5663 29.2404C18.3292 32.3147 14.8339 33.804 11.7596 32.5665C11.5167 32.4688 11.2889 32.3513 11.0663 32.2267C11.023 32.2023 10.9801 32.178 10.9374 32.1525C10.726 32.0271 10.523 31.8919 10.3319 31.7443C10.3256 31.7394 10.3186 31.7355 10.3124 31.7306L10.3007 31.7326L18.494 39.9259C18.9949 39.9695 19.4972 39.9943 19.9999 40.0001C20.4371 39.9988 20.8742 39.9832 21.3104 39.9532C21.377 39.9489 21.4432 39.9426 21.5096 39.9376C22.128 39.892 22.7439 39.8177 23.3553 39.7149C23.3873 39.7095 23.4191 39.7029 23.451 39.6974C23.9201 39.6099 24.3859 39.5057 24.8475 39.3849C25.088 39.3249 25.3293 39.2679 25.5663 39.1993C25.9761 39.0776 26.3819 38.9428 26.7831 38.795C27.0042 38.7152 27.2278 38.6402 27.4452 38.5528C27.8333 38.3937 28.2163 38.2224 28.5936 38.0392C28.813 37.9345 29.0351 37.8351 29.2499 37.7228C29.5994 37.5358 29.9433 37.3384 30.2811 37.131C30.5128 36.9916 30.749 36.8594 30.9745 36.7111C31.2988 36.4919 31.6167 36.2633 31.9276 36.0255C32.1339 35.8717 32.3467 35.726 32.5468 35.5646C32.8574 35.3082 33.1603 35.0424 33.455 34.7677C33.6451 34.5944 33.842 34.4286 34.0253 34.2482C34.3123 33.9592 34.5904 33.6615 34.8593 33.3556C35.0227 33.1739 35.1947 33.0003 35.3514 32.8126C35.6526 32.4441 35.9406 32.065 36.2147 31.6759C36.3171 31.534 36.4305 31.4007 36.5292 31.256C38.4073 28.4995 39.5661 25.317 39.9003 21.9982C39.9003 21.9976 39.9002 21.9969 39.9003 21.9963C39.9003 21.9943 39.9003 21.9924 39.9003 21.9904C39.9665 21.3291 39.9998 20.6648 39.9999 20.0002C39.9927 19.058 39.9189 18.1175 39.7792 17.1858L31.9237 9.33032Z" fill="url(#paint3_linear_1_38)"/>
<path fill-rule="evenodd" clip-rule="evenodd" d="M11.3165 31.706L17.6755 31.0649L19.0333 23.5142L12.4038 21.7461L8.60376 26.3193L11.3165 31.706Z" fill="url(#paint4_linear_1_38)"/>
<path fill-rule="evenodd" clip-rule="evenodd" d="M12.9852 31.8716L16.9577 31.455L19.1687 28.0098L16.1062 24.8535L9.17273 28.8403L12.9852 31.8716Z" fill="url(#paint5_linear_1_38)"/>
<path fill-rule="evenodd" clip-rule="evenodd" d="M1.76965 25.3125L15.3634 39.4316C16.3923 39.6789 17.4392 39.8441 18.4943 39.9257L10.3009 31.7324L8.29895 26.7578L1.76965 25.3125Z" fill="url(#paint6_linear_1_38)"/>
<path d="M26.5 7.00024C22.3579 7.00024 19 10.3581 19 14.5002C19.0017 14.7017 19.0115 14.903 19.0293 15.1037C17.7397 16.6794 14.2239 20.6507 13.916 21.006C11.4993 21.0389 9.33819 22.5186 8.43362 24.7599C7.19619 27.8342 8.68542 31.3294 11.7598 32.5665C14.834 33.8039 18.3293 32.3147 19.5664 29.2404C19.8408 28.5535 19.9858 27.8218 19.9942 27.0822L25.8907 21.9709C26.0933 21.9889 26.2966 21.9987 26.5 22.0002C30.6422 22.0002 34 18.6423 34 14.5002C34 10.3581 30.6422 7.00024 26.5 7.00024ZM26.5 10.0002C28.9853 10.0002 31 12.0149 31 14.5002C31 16.9855 28.9853 19.0002 26.5 19.0002C24.0147 19.0002 22 16.9855 22 14.5002C22 12.0149 24.0147 10.0002 26.5 10.0002ZM14.0469 23.0002C14.5431 23.006 15.0338 23.1039 15.4942 23.2892C17.5439 24.1142 18.5364 26.4448 17.711 28.4943C16.886 30.5439 14.5554 31.5365 12.5059 30.7111C10.4562 29.8861 9.46362 27.5555 10.2891 25.506C10.9052 23.9758 12.3974 22.9807 14.0469 23.0002Z" fill="white"/>
<path d="M26.5001 18.0003C28.4331 18.0003 30.0001 16.4332 30.0001 14.5002C30.0001 12.5672 28.4331 11.0002 26.5001 11.0002C24.5671 11.0002 23.0001 12.5672 23.0001 14.5002C23.0001 16.4332 24.5671 18.0003 26.5001 18.0003Z" fill="white"/>
<path d="M1.07227 18.5649C1.03008 19.0424 1.00597 19.5212 1 20.0005C1.00381 21.7988 1.2629 23.5875 1.76953 25.313L12.8809 29.7836C13.619 30.0804 14.4448 30.0718 15.1766 29.7597C15.9084 29.4477 16.4863 28.8577 16.7832 28.1196C17.08 27.3814 17.0714 26.5556 16.7593 25.8238C16.4472 25.092 15.8573 24.5141 15.1191 24.2173L1.07227 18.5649Z" fill="white"/>
<defs>
<linearGradient id="paint0_linear_1_38" x1="20" y1="0" x2="20" y2="39.9999" gradientUnits="userSpaceOnUse">
<stop stop-color="#054E87"/>
<stop offset="1" stop-color="#1D99F3"/>
</linearGradient>
<linearGradient id="paint1_linear_1_38" x1="23.0632" y1="11.0994" x2="37.9471" y2="23.4865" gradientUnits="userSpaceOnUse">
<stop stop-color="#31363B" stop-opacity="0.208"/>
<stop offset="1" stop-color="#31363B" stop-opacity="0"/>
</linearGradient>
<linearGradient id="paint2_linear_1_38" x1="27.969" y1="12.9998" x2="41.9689" y2="26.9998" gradientUnits="userSpaceOnUse">
<stop stop-color="#31363B" stop-opacity="0.208"/>
<stop offset="1" stop-color="#31363B" stop-opacity="0"/>
</linearGradient>
<linearGradient id="paint3_linear_1_38" x1="31.9999" y1="10" x2="44.9998" y2="23" gradientUnits="userSpaceOnUse">
<stop stop-color="#31363B" stop-opacity="0.208"/>
<stop offset="1" stop-color="#31363B" stop-opacity="0"/>
</linearGradient>
<linearGradient id="paint4_linear_1_38" x1="10.7553" y1="23.7608" x2="25.6393" y2="36.1478" gradientUnits="userSpaceOnUse">
<stop stop-color="#31363B" stop-opacity="0.208"/>
<stop offset="1" stop-color="#31363B" stop-opacity="0"/>
</linearGradient>
<linearGradient id="paint5_linear_1_38" x1="15.0986" y1="25.8298" x2="29.0985" y2="39.8298" gradientUnits="userSpaceOnUse">
<stop stop-color="#31363B" stop-opacity="0.208"/>
<stop offset="1" stop-color="#31363B" stop-opacity="0"/>
</linearGradient>
<linearGradient id="paint6_linear_1_38" x1="1.72512" y1="25.2958" x2="14.7251" y2="38.2958" gradientUnits="userSpaceOnUse">
<stop stop-color="#31363B" stop-opacity="0.208"/>
<stop offset="1" stop-color="#31363B" stop-opacity="0"/>
</linearGradient>
</defs>
</svg>
